<?xml version="1.0" encoding="UTF-8"?>
<svg id="Layer_1" xmlns="http://www.w3.org/2000/svg" xmlns:xlink="http://www.w3.org/1999/xlink" version="1.1" viewBox="0 0 1058.58 1058.58">
  <!-- Generator: Adobe Illustrator 30.6.0, SVG Export Plug-In . SVG Version: 2.1.4 Build 109)  -->
  <defs>
    <style>
      .st0 {
        fill: url(#linear-gradient);
      }
    </style>
    <linearGradient id="linear-gradient" x1="851.5" y1="1087.37" x2="207.08" y2="-28.8" gradientUnits="userSpaceOnUse">
      <stop offset="0" stop-color="#7bee6b"/>
      <stop offset="1" stop-color="#4fe3c1"/>
    </linearGradient>
  </defs>
  <path class="st0" d="M529.77,340.54v61.28c0,5.7-4.62,10.32-10.32,10.32h-116.06v315.21c0,5.7-4.62,10.32-10.32,10.32h-68.39c-5.7,0-10.32-4.62-10.32-10.32v-315.21h-116.06c-5.7,0-10.32-4.62-10.32-10.32v-61.28c0-5.7,4.62-10.32,10.32-10.32h321.16c5.7,0,10.32,4.62,10.32,10.32ZM828.28,529.58c-15.16-10.84-38.81-23.68-99.31-36.65-63.7-13.65-90.33-23.47-90.33-48.99s24.51-40.56,62.44-40.56,75.77,8.34,111.69,24.78c5.04,2.31,11.01.22,13.51-4.73l27.91-55.26c1.25-2.47,1.45-5.33.57-7.95-.88-2.62-2.78-4.78-5.27-5.98-41.96-20.36-93.28-31.13-148.4-31.13-48.33,0-86.44,11.45-113.26,34.02-25.71,21.64-39.3,52.61-39.3,89.55s14.17,67.65,43.31,88.42c23.12,16.48,54.86,27.91,106.06,38.22,64.41,13.37,82.05,23.66,82.05,47.88,0,38.63-41.18,44.4-65.72,44.4-42.98,0-80.85-9.7-130.69-33.47-2.53-1.2-5.44-1.33-8.06-.35-2.62.98-4.73,2.99-5.85,5.56l-25.17,58c-2.26,5.2.1,11.24,5.28,13.54,51.16,22.74,95.02,35.91,167.78,35.91,48.42,0,86.15-10.62,112.14-31.56,27.19-21.91,40.98-54.34,40.98-96.4,0-38.32-13.85-66.86-42.34-87.24ZM1058.58,214.63v629.32c0,118.35-96.28,214.63-214.63,214.63H214.63c-118.35,0-214.63-96.28-214.63-214.63V214.63C0,96.28,96.28,0,214.63,0h629.32c118.35,0,214.63,96.28,214.63,214.63ZM976.25,645.49V214.63c0-72.95-59.35-132.29-132.3-132.29H214.63c-72.95,0-132.29,59.35-132.29,132.29v629.32c0,72.95,59.35,132.3,132.29,132.3h629.32c72.95,0,132.3-59.35,132.3-132.3v-198.46Z"/>
</svg>