<?xml version="1.0" encoding="UTF-8"?>
<svg id="Layer_1" xmlns="http://www.w3.org/2000/svg" xmlns:xlink="http://www.w3.org/1999/xlink" version="1.1" viewBox="0 0 1544.42 789.55">
  <!-- Generator: Adobe Illustrator 30.6.0, SVG Export Plug-In . SVG Version: 2.1.4 Build 109)  -->
  <defs>
    <style>
      .st0 {
        fill: url(#linear-gradient);
      }
    </style>
    <linearGradient id="linear-gradient" x1="839.39" y1="816.37" x2="593.21" y2="-102.37" gradientUnits="userSpaceOnUse">
      <stop offset="0" stop-color="#7bee6b"/>
      <stop offset="1" stop-color="#4fe3c1"/>
    </linearGradient>
  </defs>
  <path class="st0" d="M343.26,342.41c38.09,0,73.55,7.44,102.56,21.51,1.81.88,3.19,2.44,3.83,4.35.64,1.9.5,3.99-.41,5.78l-19.25,38.13c-1.82,3.6-6.15,5.12-9.82,3.44-24.73-11.32-50.61-17.06-76.91-17.06s-42.71,10.84-42.71,27.61,18.28,24.06,62.02,33.44c41.82,8.96,58.18,17.84,68.67,25.35,19.76,14.14,29.37,33.93,29.37,60.51,0,29.14-9.56,51.62-28.42,66.81-18,14.5-44.11,21.85-77.61,21.85-50.27,0-80.57-9.1-115.92-24.81-3.76-1.67-5.47-6.06-3.83-9.84l17.36-40.01c.81-1.87,2.34-3.33,4.25-4.04,1.9-.71,4.02-.62,5.86.25,34.34,16.38,60.42,23.05,90.01,23.05,16.8,0,44.97-3.93,44.97-30.25,0-16.47-12.1-23.5-56.31-32.67-49.99-10.07-103.37-25.99-103.37-87.75,0-25.61,9.42-47.08,27.26-62.08,18.58-15.63,44.95-23.56,78.39-23.56ZM589.02,632.98c40.16,0,75.08-15.52,95.8-42.58,2.38-3.1,1.97-7.51-.93-10.13l-30.96-27.94c-1.56-1.41-3.65-2.1-5.75-1.9-2.1.2-4.01,1.28-5.28,2.96-11.53,15.38-30.74,24.56-51.38,24.56-35.66,0-57.81-22.87-57.81-59.7s22.44-58.19,58.56-58.19c19.64,0,38.42,9.21,49.01,24.04,1.24,1.74,3.17,2.87,5.29,3.1s4.25-.46,5.83-1.89l30.96-27.94c2.88-2.6,3.3-6.96.98-10.07-20.32-27.1-54.43-42.64-93.58-42.64-35.2,0-65,10.97-86.18,31.73-20.89,20.48-31.93,48.91-31.93,82.22s10.81,62.91,31.25,83.1c20.69,20.43,50.47,31.23,86.1,31.23ZM1051.59,436.37c18.65,20.24,28.5,48.95,28.5,83.03,0,3.3,0,9.43-.41,13.58-.38,3.84-3.61,6.76-7.46,6.76h-156.52c3.13,11.62,8.81,20.98,16.97,27.88,10.19,8.62,23.74,13,40.27,13,24.13,0,43.9-8.81,57.18-25.48,1.26-1.58,3.09-2.58,5.1-2.79,2.01-.21,4.01.4,5.56,1.69l29.06,24.16c3.05,2.54,3.6,7.01,1.25,10.21-21.93,29.83-55.97,44.96-101.17,44.96-35.02,0-64.47-10.89-85.18-31.49-20.55-20.45-31.42-49.36-31.42-83.6s11.03-62.46,31.88-83.26c20.62-20.57,48.87-31.45,81.69-31.45,35.64,0,64.93,11.34,84.7,32.81ZM1018.73,491.14c-2.32-9.12-6.75-16.81-13.05-22.53-9.24-8.41-22.29-12.68-38.79-12.68-24.92,0-42.85,12.7-50.34,35.21h102.18ZM1288.29,436.37c18.65,20.24,28.5,48.96,28.5,83.03,0,3.3,0,9.44-.42,13.59-.38,3.83-3.61,6.75-7.46,6.75h-156.52c3.12,11.62,8.81,20.98,16.97,27.88,10.19,8.62,23.74,13,40.27,13,24.13,0,43.9-8.81,57.17-25.48,1.26-1.58,3.09-2.58,5.1-2.79,2.01-.21,4.01.4,5.56,1.69l29.07,24.16c3.05,2.54,3.6,7.01,1.25,10.21-21.93,29.83-55.97,44.96-101.17,44.96-35.02,0-64.48-10.89-85.18-31.49-20.55-20.45-31.42-49.36-31.42-83.6s11.03-62.46,31.88-83.26c20.62-20.57,48.87-31.45,81.7-31.45,35.64,0,64.93,11.34,84.7,32.81ZM1255.42,491.14c-2.32-9.12-6.76-16.81-13.05-22.53-9.24-8.41-22.29-12.68-38.79-12.68-24.92,0-42.85,12.7-50.34,35.21h102.18ZM1521.07,425.9c-14.32-14.27-35.19-21.21-63.81-21.21-21.54,0-42.52,6.16-60.45,17.58v-5.92c0-4.14-3.36-7.5-7.5-7.5h-43.42c-4.14,0-7.5,3.36-7.5,7.5v205.36c0,4.14,3.36,7.5,7.5,7.5h44.54c4.14,0,7.5-3.36,7.5-7.5v-142.23c10.02-9.65,25.7-20.15,46.49-20.15s40.44,6,40.44,49.5v112.88c0,4.14,3.36,7.5,7.5,7.5h44.54c4.14,0,7.5-3.36,7.5-7.5v-121.93c0-34.05-7.64-58.22-23.34-73.88ZM845.58,407.53c-6.39-2.66-14.54-3.21-20.25-3.21-22.19,0-42,7.27-57.43,20.81v-8.78c0-4.14-3.36-7.5-7.5-7.5h-43.42c-4.14,0-7.5,3.36-7.5,7.5v73.02h-.08v144.21c0,53.01-43.13,96.14-96.14,96.14H155.96c-53.01,0-96.13-43.13-96.13-96.14V176.28c0-53.01,43.13-96.13,96.13-96.13h138.46v216.14c0,4.14,3.36,7.5,7.5,7.5h47.19c4.14,0,7.5-3.36,7.5-7.5V80.14h49.76s30.31,0,30.31,0c4.14,0,7.5-3.36,7.5-7.5V27.81c0-4.14-3.36-7.5-7.5-7.5h-90.81s-.01,0-.02,0h-189.89C69.96,20.32,0,90.28,0,176.28v457.31c0,86,69.96,155.96,155.96,155.96h457.31c86,0,155.96-69.97,155.96-155.96v-117.22c2.06-32.1,19.68-51.75,47.04-51.75,7.72,0,15.54,1.46,23.89,4.46,2.3.83,4.85.48,6.85-.92,2-1.4,3.19-3.69,3.19-6.14v-47.57c0-3.03-1.82-5.76-4.62-6.92ZM495.95,72c20.29,0,36.19-15.9,36.19-36.19S515.91,0,495.95,0s-36.56,16.07-36.56,35.81,16.4,36.19,36.56,36.19ZM525.73,296.29V90.93c0-4.14-3.36-7.5-7.5-7.5h-45.3c-4.14,0-7.5,3.36-7.5,7.5v205.36c0,4.14,3.36,7.5,7.5,7.5h45.3c4.14,0,7.5-3.36,7.5-7.5ZM571.08,303.79h44.54c4.14,0,7.5-3.36,7.5-7.5v-142.22c10.02-9.65,25.7-20.15,46.48-20.15s40.44,6,40.44,49.5v112.87c0,4.14,3.36,7.5,7.5,7.5h44.55c4.14,0,7.5-3.36,7.5-7.5v-121.93c0-34.06-7.64-58.22-23.35-73.88-14.32-14.27-35.19-21.2-63.81-21.2-21.54,0-42.52,6.16-60.45,17.58v-5.93c0-4.14-3.36-7.5-7.5-7.5h-43.41c-4.14,0-7.5,3.36-7.5,7.5v205.36c0,4.14,3.36,7.5,7.5,7.5ZM863.99,299.05c-9.46,17.27-20.93,24.09-39.99,24.09-10.69,0-18.07-1.96-25.9-4.03l-2.41-.64c-2.25-.58-4.64-.1-6.48,1.32-1.84,1.42-2.92,3.61-2.92,5.94v38.5c0,3.23,2.07,6.09,5.13,7.11,8.4,2.8,23.38,4.91,34.84,4.91,35.07,0,71.12-8.84,97.16-72.99l85.7-209.51c.95-2.31.68-4.95-.71-7.02-1.39-2.07-3.73-3.32-6.23-3.32h-47.95c-3.09,0-5.87,1.9-6.99,4.78l-53.96,138.42-56.69-138.53c-1.15-2.82-3.9-4.66-6.94-4.66h-50.58c-2.54,0-4.91,1.29-6.29,3.42-1.38,2.13-1.59,4.82-.55,7.14l91.76,205.06Z"/>
</svg>